<?xml version="1.0" standalone="no"?>
<!DOCTYPE svg PUBLIC "-//W3C//DTD SVG 20010904//EN"
 "http://www.w3.org/TR/2001/REC-SVG-20010904/DTD/svg10.dtd">
<svg version="1.0" xmlns="http://www.w3.org/2000/svg"
 width="500.000000pt" height="500.000000pt" viewBox="0 0 500.000000 500.000000"
 preserveAspectRatio="xMidYMid meet">

<g transform="translate(0.000000,500.000000) scale(0.100000,-0.100000)"
fill="#000000" stroke="none">
<path d="M4200 3247 c-25 -9 -50 -33 -92 -88 -92 -123 -202 -193 -512 -325
-102 -43 -152 -71 -189 -104 -56 -50 -97 -126 -97 -180 l0 -35 38 60 c77 121
158 171 492 305 307 123 417 186 455 261 39 75 -13 134 -95 106z"/>
<path d="M3080 2862 c65 -36 66 -93 1 -160 -219 -226 -988 -415 -1220 -300
-61 31 -74 64 -44 119 l21 39 -24 -19 c-47 -37 -84 -92 -84 -125 1 -41 18 -62
73 -86 264 -117 1085 81 1343 324 70 66 90 107 70 147 -12 27 -83 65 -136 75
l-35 6 35 -20z"/>
<path d="M3200 2600 c-149 -149 -525 -299 -895 -356 -142 -21 -194 -25 -315
-21 -102 3 -158 9 -189 21 -24 9 -46 14 -49 11 -2 -2 24 -33 59 -67 265 -262
851 -227 1223 73 112 90 187 196 221 312 28 96 18 100 -55 27z"/>
<path d="M1411 1739 c-77 -17 -125 -82 -118 -162 5 -57 30 -95 78 -119 41 -22
120 -23 158 -3 37 19 81 71 81 96 0 16 -7 19 -50 19 -29 0 -61 -7 -75 -16 -14
-9 -33 -13 -44 -9 -24 7 -38 51 -24 74 14 22 57 26 73 7 8 -11 30 -16 66 -16
62 0 68 12 34 67 -31 52 -106 78 -179 62z"/>
<path d="M1787 1739 c-20 -5 -48 -16 -61 -24 -57 -37 -74 -145 -33 -206 60
-90 217 -93 281 -6 30 40 29 134 0 174 -41 54 -113 78 -187 62z m81 -111 c19
-19 15 -66 -7 -78 -31 -16 -49 -12 -67 15 -15 23 -15 27 0 50 18 27 54 33 74
13z"/>
<path d="M2180 1740 c-78 -14 -124 -71 -123 -151 1 -91 65 -149 165 -149 74 0
117 25 147 83 63 126 -40 244 -189 217z m74 -116 c30 -29 9 -84 -31 -84 -23 0
-53 29 -53 51 0 23 26 49 50 49 10 0 26 -7 34 -16z"/>
<path d="M3508 1740 c-77 -14 -122 -70 -121 -151 1 -90 64 -149 160 -149 88 0
149 49 160 128 l6 42 -92 0 c-90 0 -91 0 -91 -25 0 -21 5 -25 31 -25 40 0 34
-24 -8 -28 -38 -4 -63 19 -63 58 0 52 20 60 121 53 96 -7 103 -3 68 41 -37 47
-102 69 -171 56z"/>
<path d="M2450 1590 l0 -150 60 0 60 0 0 50 c0 34 4 50 13 50 7 0 21 -22 31
-50 l18 -50 64 0 c35 0 64 4 64 9 0 5 -13 37 -30 72 l-29 64 24 68 c14 37 25
72 25 77 0 6 -27 10 -59 10 l-59 0 -14 -42 c-8 -24 -22 -44 -31 -46 -14 -3
-17 5 -17 42 l0 46 -60 0 -60 0 0 -150z"/>
<path d="M2830 1590 l0 -150 60 0 60 0 0 150 0 150 -60 0 -60 0 0 -150z"/>
<path d="M3020 1590 l0 -150 60 0 59 0 3 56 3 57 39 -57 c38 -55 39 -56 87
-56 l49 0 0 150 0 150 -60 0 -60 0 0 -57 0 -56 -41 56 c-39 56 -41 57 -90 57
l-49 0 0 -150z"/>
</g>
</svg>
